<svg aria-hidden="true" style="position: absolute; width: 0; height: 0; overflow: hidden;" version="1.1" xmlns="http://www.w3.org/2000/svg" xmlns:xlink="http://www.w3.org/1999/xlink">
<defs>
<symbol id="icon-customers" viewBox="0 0 308 32">
<path fill="#FFFFFF" style="fill: var(--color1, #FFFFFF)" d="M20 30.333h-8c-1.76 0-3.227-0.173-4.467-0.547-0.422-0.133-0.722-0.52-0.722-0.977 0-0.022 0.001-0.044 0.002-0.066l-0 0.003c0.333-3.987 4.373-7.12 9.187-7.12s8.84 3.12 9.187 7.12c0.040 0.48-0.253 0.907-0.72 1.040-1.24 0.373-2.707 0.547-4.467 0.547zM8.96 28.080c0.88 0.173 1.88 0.253 3.040 0.253h8c1.16 0 2.16-0.080 3.040-0.253-0.707-2.56-3.627-4.453-7.040-4.453s-6.333 1.893-7.040 4.453z"></path>
<path fill="none" stroke="#FFFFFF" style="stroke: var(--color1, #FFFFFF)" stroke-linejoin="round" stroke-linecap="round" stroke-miterlimit="4" stroke-width="2" d="M20 2.667h-8c-6.667 0-9.333 2.667-9.333 9.333v8c0 5.040 1.52 7.8 5.147 8.827 0.293-3.467 3.853-6.2 8.187-6.2s7.893 2.733 8.187 6.2c3.627-1.027 5.147-3.787 5.147-8.827v-8c0-6.667-2.667-9.333-9.333-9.333zM16 18.893c-2.64 0-4.773-2.147-4.773-4.787s2.133-4.773 4.773-4.773 4.773 2.133 4.773 4.773-2.133 4.787-4.773 4.787z"></path>
<path fill="#FFFFFF" style="fill: var(--color1, #FFFFFF)" d="M16 19.893c-3.19-0.008-5.773-2.595-5.773-5.787 0 0 0 0 0 0v0c0-3.187 2.587-5.773 5.773-5.773s5.773 2.587 5.773 5.773c0 0 0 0 0 0 0 3.191-2.583 5.779-5.773 5.787h-0.001zM16 10.333c-2.045 0.056-3.681 1.727-3.681 3.78s1.636 3.724 3.676 3.78l0.005 0c2.045-0.056 3.681-1.727 3.681-3.78s-1.636-3.724-3.676-3.78l-0.005-0zM51.357 16.152c0-1.269 0.293-2.408 0.877-3.416 0.585-0.991 1.401-1.788 2.376-2.336l0.032-0.016c1.020-0.573 2.133-0.859 3.341-0.859 1.381 0 2.607 0.343 3.677 1.027 1.083 0.672 1.867 1.631 2.352 2.875h-2.557c-0.336-0.684-0.803-1.195-1.4-1.531s-1.288-0.504-2.072-0.504c-0.859 0-1.624 0.193-2.296 0.579-0.672 0.387-1.2 0.94-1.587 1.661-0.373 0.721-0.56 1.561-0.56 2.52s0.187 1.799 0.56 2.52c0.387 0.721 0.915 1.281 1.587 1.68 0.672 0.387 1.437 0.579 2.296 0.579 0.784 0 1.475-0.168 2.072-0.504s1.064-0.847 1.4-1.531h2.557c-0.485 1.244-1.269 2.203-2.352 2.875-1.071 0.672-2.296 1.008-3.677 1.008-1.22 0-2.333-0.28-3.341-0.84-1.005-0.574-1.82-1.377-2.392-2.341l-0.016-0.030c-0.585-1.008-0.877-2.147-0.877-3.416zM75.632 12.381v10.285h-2.128v-1.213c-0.336 0.423-0.777 0.76-1.325 1.008-0.535 0.236-1.107 0.355-1.717 0.355-0.022 0-0.047 0.001-0.073 0.001-0.77 0-1.497-0.186-2.137-0.517l0.026 0.012c-0.642-0.347-1.158-0.856-1.502-1.474l-0.010-0.019c-0.36-0.66-0.541-1.456-0.541-2.389v-6.048h2.109v5.731c0 0.92 0.231 1.631 0.691 2.128 0.461 0.485 1.089 0.728 1.885 0.728s1.425-0.243 1.885-0.728c0.473-0.497 0.709-1.207 0.709-2.128v-5.731h2.128zM81.987 22.835c-0.025 0-0.054 0.001-0.084 0.001-0.759 0-1.481-0.158-2.135-0.443l0.034 0.013c-0.609-0.278-1.116-0.683-1.505-1.186l-0.007-0.009c-0.353-0.469-0.574-1.056-0.597-1.693l-0-0.005h2.203c0.037 0.436 0.243 0.803 0.616 1.101 0.387 0.287 0.865 0.429 1.437 0.429 0.597 0 1.057-0.112 1.381-0.336 0.336-0.236 0.504-0.535 0.504-0.896 0-0.387-0.187-0.672-0.56-0.859-0.36-0.187-0.94-0.392-1.736-0.616-0.761-0.201-1.389-0.411-1.999-0.656l0.114 0.040c-0.504-0.211-0.928-0.522-1.266-0.91l-0.004-0.004c-0.348-0.411-0.523-0.952-0.523-1.624 0-0.547 0.161-1.045 0.485-1.493 0.324-0.46 0.784-0.821 1.381-1.083 0.609-0.261 1.307-0.392 2.091-0.392 1.169 0 2.109 0.299 2.819 0.896 0.721 0.585 1.107 1.387 1.157 2.408h-2.128c-0.023-0.445-0.235-0.837-0.557-1.099l-0.003-0.002c-0.336-0.273-0.791-0.411-1.363-0.411-0.56 0-0.989 0.107-1.288 0.317-0.271 0.178-0.448 0.481-0.448 0.825 0 0.005 0 0.011 0 0.016v-0.001c0 0.273 0.1 0.504 0.299 0.691 0.2 0.187 0.441 0.336 0.728 0.448 0.287 0.1 0.709 0.231 1.269 0.392 0.747 0.2 1.356 0.404 1.829 0.616 0.485 0.2 0.903 0.497 1.251 0.896s0.529 0.927 0.541 1.587c0 0.585-0.161 1.107-0.485 1.568-0.324 0.46-0.784 0.821-1.381 1.083-0.585 0.261-1.276 0.392-2.072 0.392zM90.52 14.117v5.693c0 0.387 0.088 0.667 0.261 0.84 0.187 0.161 0.499 0.243 0.933 0.243h1.307v1.773h-1.68c-0.957 0-1.692-0.224-2.203-0.672-0.509-0.448-0.765-1.176-0.765-2.184v-5.693h-1.213v-1.736h1.213v-2.557h2.147v2.557h2.501v1.736h-2.501zM99.257 22.835c-0.022 0-0.049 0.001-0.075 0.001-0.938 0-1.819-0.242-2.584-0.668l0.027 0.014c-0.78-0.448-1.407-1.081-1.835-1.842l-0.013-0.024c-0.448-0.809-0.672-1.743-0.672-2.8 0-1.045 0.231-1.973 0.691-2.781 0.447-0.792 1.088-1.427 1.861-1.854l0.025-0.012c0.75-0.412 1.644-0.654 2.594-0.654 0.027 0 0.053 0 0.080 0.001l-0.004-0c0.984 0 1.873 0.217 2.669 0.653 0.797 0.44 1.438 1.075 1.873 1.843l0.012 0.024c0.461 0.809 0.691 1.736 0.691 2.781s-0.236 1.973-0.709 2.781c-0.467 0.799-1.126 1.44-1.915 1.872l-0.026 0.013c-0.759 0.412-1.661 0.654-2.62 0.654-0.024 0-0.048-0-0.072-0l0.004 0zM99.257 20.987c0.548 0 1.059-0.131 1.531-0.392 0.485-0.261 0.877-0.653 1.176-1.176s0.448-1.157 0.448-1.904c0-0.747-0.143-1.375-0.429-1.885-0.264-0.497-0.652-0.898-1.125-1.169l-0.014-0.007c-0.436-0.247-0.957-0.392-1.512-0.392-0.006 0-0.013 0-0.019 0h0.001c-0.547 0-1.057 0.131-1.531 0.392-0.46 0.261-0.827 0.653-1.101 1.176-0.273 0.511-0.411 1.139-0.411 1.885 0 1.107 0.28 1.967 0.84 2.576 0.573 0.597 1.288 0.896 2.147 0.896zM118.964 12.213c0.809 0 1.531 0.168 2.165 0.504 0.648 0.336 1.152 0.833 1.512 1.493 0.373 0.66 0.56 1.456 0.56 2.389v6.067h-2.108v-5.749c0-0.92-0.229-1.624-0.691-2.109-0.46-0.497-1.089-0.747-1.885-0.747s-1.431 0.249-1.904 0.747c-0.46 0.485-0.691 1.188-0.691 2.109v5.749h-2.109v-5.749c0-0.92-0.229-1.624-0.691-2.109-0.46-0.497-1.088-0.747-1.885-0.747-0.796 0-1.431 0.249-1.904 0.747-0.46 0.485-0.691 1.188-0.691 2.109v5.749h-2.128v-10.285h2.128v1.176c0.349-0.423 0.791-0.753 1.325-0.989 0.497-0.224 1.078-0.355 1.689-0.355 0.010 0 0.020 0 0.029 0h-0.001c0.821 0 1.556 0.173 2.203 0.523 0.647 0.348 1.145 0.853 1.493 1.512 0.326-0.635 0.826-1.141 1.438-1.466l0.018-0.009c0.606-0.352 1.333-0.56 2.109-0.56 0.007 0 0.014 0 0.020 0h-0.001zM135.149 17.272c0 0.387-0.025 0.733-0.075 1.045h-7.859c0.063 0.821 0.367 1.48 0.915 1.979 0.547 0.497 1.22 0.747 2.016 0.747 1.145 0 1.953-0.48 2.427-1.437h2.296c-0.319 0.961-0.912 1.759-1.685 2.324l-0.013 0.009c-0.809 0.597-1.817 0.896-3.024 0.896-0.983 0-1.867-0.217-2.651-0.653-0.771-0.452-1.392-1.084-1.817-1.842l-0.013-0.025c-0.436-0.809-0.653-1.743-0.653-2.8s0.212-1.985 0.635-2.781c0.42-0.789 1.038-1.425 1.788-1.855l0.022-0.012c0.784-0.436 1.68-0.653 2.688-0.653 0.971 0 1.836 0.212 2.595 0.635 0.754 0.422 1.359 1.032 1.762 1.769l0.012 0.023c0.423 0.76 0.635 1.636 0.635 2.632zM132.928 16.6c-0.013-0.784-0.293-1.413-0.84-1.885-0.547-0.473-1.227-0.709-2.035-0.709-0.733 0-1.363 0.236-1.885 0.709-0.523 0.46-0.833 1.089-0.933 1.885h5.693zM139.185 13.875c0.311-0.523 0.721-0.927 1.232-1.213 0.523-0.299 1.139-0.448 1.848-0.448v2.203h-0.541c-0.835 0-1.469 0.212-1.904 0.635-0.424 0.423-0.635 1.157-0.635 2.203v5.413h-2.128v-10.285h2.128v1.493zM147.768 22.835c-0.809 0-1.537-0.143-2.184-0.429-0.609-0.278-1.116-0.683-1.505-1.186l-0.007-0.009c-0.353-0.469-0.574-1.056-0.597-1.693l-0-0.005h2.203c0.037 0.436 0.243 0.803 0.616 1.101 0.385 0.287 0.864 0.429 1.437 0.429 0.597 0 1.057-0.112 1.381-0.336 0.336-0.236 0.504-0.535 0.504-0.896 0-0.387-0.187-0.672-0.56-0.859-0.361-0.187-0.94-0.392-1.736-0.616-0.761-0.2-1.389-0.411-1.999-0.656l0.113 0.040c-0.504-0.211-0.928-0.522-1.266-0.91l-0.004-0.004c-0.349-0.411-0.523-0.952-0.523-1.624 0-0.547 0.161-1.045 0.485-1.493 0.323-0.46 0.784-0.821 1.381-1.083 0.609-0.261 1.307-0.392 2.091-0.392 1.169 0 2.109 0.299 2.819 0.896 0.721 0.585 1.107 1.387 1.157 2.408h-2.128c-0.023-0.445-0.235-0.837-0.557-1.099l-0.003-0.002c-0.336-0.273-0.791-0.411-1.363-0.411-0.56 0-0.989 0.107-1.288 0.317-0.271 0.178-0.448 0.481-0.448 0.825 0 0.005 0 0.011 0 0.016v-0.001c-0 0.005-0 0.012-0 0.018 0 0.267 0.115 0.506 0.298 0.672l0.001 0.001c0.199 0.187 0.441 0.336 0.728 0.448 0.285 0.1 0.709 0.231 1.269 0.392 0.715 0.182 1.324 0.393 1.91 0.647l-0.080-0.031c0.485 0.2 0.901 0.497 1.251 0.896 0.348 0.399 0.528 0.927 0.541 1.587 0 0.010 0 0.022 0 0.034 0 0.575-0.182 1.107-0.491 1.542l0.006-0.008c-0.324 0.46-0.784 0.821-1.381 1.083-0.585 0.261-1.276 0.392-2.072 0.392z"></path>
<path fill="none" stroke="#FFFFFF" style="stroke: var(--color1, #FFFFFF)" stroke-linejoin="round" stroke-linecap="round" stroke-miterlimit="4" stroke-width="2.6667" d="M294.667 21.333l5.333-5.333-5.333-5.333"></path>
</symbol>
<symbol id="icon-dashboard" viewBox="0 0 155 32">
<path fill="none" stroke="#9197b3" style="stroke: var(--color1, #9197b3)" stroke-linejoin="round" stroke-linecap="round" stroke-miterlimit="4" stroke-width="2" d="M12 29.333h8c6.667 0 9.333-2.667 9.333-9.333v-8c0-6.667-2.667-9.333-9.333-9.333h-8c-6.667 0-9.333 2.667-9.333 9.333v8c0 6.667 2.667 9.333 9.333 9.333z"></path>
<path fill="none" stroke="#9197b3" style="stroke: var(--color1, #9197b3)" stroke-linejoin="round" stroke-linecap="round" stroke-miterlimit="10" stroke-width="2" d="M21.707 18.147c-1.001 1.005-2.387 1.627-3.917 1.627-0.591 0-1.161-0.093-1.695-0.265l0.039 0.011-3.453 3.44c-0.24 0.253-0.733 0.413-1.093 0.36l-1.6-0.213c-0.533-0.067-1.013-0.573-1.093-1.093l-0.213-1.6c-0.053-0.347 0.12-0.84 0.36-1.093l3.44-3.44c-0.587-1.907-0.133-4.067 1.373-5.573 2.16-2.16 5.68-2.16 7.853 0 2.16 2.147 2.16 5.667 0 7.84zM13.933 21.707l-1.133-1.147"></path>
<path fill="none" stroke="#9197b3" style="stroke: var(--color1, #9197b3)" stroke-linejoin="round" stroke-linecap="round" stroke-miterlimit="4" stroke-width="2.6667" d="M17.86 14.267h0.011"></path>
<path fill="#9197b3" style="fill: var(--color1, #9197b3)" d="M56.304 8.36c1.381 0 2.588 0.267 3.621 0.803 1.025 0.507 1.849 1.289 2.394 2.25l0.014 0.027c0.573 0.983 0.859 2.133 0.859 3.453s-0.287 2.464-0.859 3.435c-0.567 0.971-1.389 1.739-2.375 2.225l-0.033 0.015c-1.033 0.511-2.24 0.765-3.621 0.765h-4.237v-12.973h4.237zM56.304 19.597c1.519 0 2.681-0.411 3.491-1.232s1.213-1.979 1.213-3.472c0-1.507-0.404-2.681-1.213-3.528s-1.973-1.269-3.491-1.269h-2.109v9.501h2.109zM64.405 16.144c0-1.033 0.211-1.947 0.635-2.744 0.813-1.511 2.382-2.52 4.188-2.52 0.011 0 0.022 0 0.032 0h-0.002c0.808 0 1.512 0.161 2.109 0.485 0.609 0.311 1.095 0.703 1.456 1.176v-1.493h2.147v10.285h-2.147v-1.531c-0.36 0.485-0.853 0.889-1.475 1.213-0.623 0.324-1.332 0.485-2.128 0.485-0.884 0-1.693-0.224-2.427-0.672-0.742-0.474-1.337-1.117-1.742-1.877l-0.013-0.027c-0.424-0.821-0.635-1.748-0.635-2.781zM72.824 16.181c0-0.709-0.149-1.325-0.448-1.848-0.287-0.523-0.667-0.92-1.139-1.195-0.434-0.258-0.957-0.411-1.516-0.411-0.005 0-0.010 0-0.015 0h0.001c-0.547 0-1.059 0.137-1.531 0.411-0.473 0.261-0.859 0.653-1.157 1.176-0.287 0.511-0.429 1.12-0.429 1.829s0.143 1.332 0.429 1.867c0.299 0.535 0.684 0.947 1.157 1.232 0.485 0.273 0.995 0.411 1.531 0.411 0.547 0 1.057-0.137 1.531-0.411 0.472-0.273 0.853-0.672 1.139-1.195 0.299-0.535 0.448-1.157 0.448-1.867zM81.312 21.501c-0.025 0-0.055 0.001-0.084 0.001-0.759 0-1.481-0.158-2.134-0.443l0.034 0.013c-0.609-0.278-1.116-0.683-1.505-1.186l-0.007-0.009c-0.353-0.469-0.574-1.056-0.597-1.693l-0-0.005h2.203c0.037 0.436 0.243 0.803 0.616 1.101 0.387 0.287 0.865 0.429 1.437 0.429 0.597 0 1.057-0.112 1.381-0.336 0.336-0.236 0.504-0.535 0.504-0.896 0-0.387-0.187-0.672-0.56-0.859-0.36-0.187-0.94-0.392-1.736-0.616-0.761-0.201-1.389-0.411-1.999-0.656l0.113 0.040c-0.504-0.211-0.928-0.522-1.266-0.911l-0.004-0.004c-0.348-0.411-0.523-0.952-0.523-1.624 0-0.547 0.161-1.045 0.485-1.493 0.324-0.46 0.784-0.821 1.381-1.083 0.609-0.261 1.307-0.392 2.091-0.392 1.169 0 2.109 0.299 2.819 0.896 0.721 0.585 1.107 1.387 1.157 2.408h-2.128c-0.023-0.445-0.235-0.837-0.557-1.099l-0.003-0.002c-0.336-0.273-0.791-0.411-1.363-0.411-0.56 0-0.989 0.107-1.288 0.317-0.271 0.178-0.448 0.481-0.448 0.825 0 0.005 0 0.011 0 0.016v-0.001c0 0.273 0.1 0.504 0.299 0.691 0.2 0.187 0.441 0.336 0.728 0.448 0.287 0.1 0.709 0.231 1.269 0.392 0.747 0.2 1.356 0.404 1.829 0.616 0.485 0.2 0.903 0.497 1.251 0.896s0.529 0.927 0.541 1.587c0 0.585-0.161 1.107-0.485 1.568-0.324 0.46-0.784 0.821-1.381 1.083-0.585 0.261-1.276 0.392-2.072 0.392zM92.684 10.88c0.784 0 1.48 0.168 2.091 0.504 0.621 0.336 1.107 0.833 1.456 1.493 0.36 0.66 0.541 1.456 0.541 2.389v6.067h-2.109v-5.749c0-0.92-0.231-1.624-0.691-2.109-0.461-0.497-1.089-0.747-1.885-0.747-0.797 0-1.432 0.249-1.904 0.747-0.461 0.485-0.691 1.188-0.691 2.109v5.749h-2.128v-13.813h2.128v4.723c0.36-0.436 0.813-0.772 1.363-1.008 0.56-0.236 1.169-0.355 1.829-0.355zM101.427 12.579c0.361-0.497 0.853-0.903 1.475-1.213 0.598-0.306 1.304-0.486 2.052-0.486 0.020 0 0.041 0 0.061 0l-0.003-0c0.909 0 1.731 0.217 2.464 0.653 0.735 0.436 1.313 1.057 1.736 1.867 0.424 0.796 0.635 1.711 0.635 2.744s-0.211 1.96-0.635 2.781c-0.41 0.792-1.007 1.437-1.735 1.892l-0.020 0.012c-0.682 0.422-1.509 0.672-2.395 0.672-0.018 0-0.035-0-0.053-0l0.003 0c-0.796 0-1.505-0.156-2.128-0.467-0.584-0.29-1.071-0.693-1.449-1.185l-0.007-0.010v1.493h-2.128v-13.813h2.128v5.059zM107.68 16.144c0-0.709-0.149-1.32-0.448-1.829-0.267-0.501-0.662-0.902-1.143-1.169l-0.015-0.007c-0.439-0.257-0.967-0.409-1.531-0.409s-1.091 0.152-1.545 0.417l0.015-0.008c-0.488 0.291-0.88 0.696-1.149 1.179l-0.008 0.016c-0.285 0.523-0.429 1.139-0.429 1.848s0.144 1.332 0.429 1.867c0.299 0.523 0.685 0.92 1.157 1.195 0.485 0.273 0.996 0.411 1.531 0.411 0.548 0 1.059-0.137 1.531-0.411 0.485-0.287 0.872-0.697 1.157-1.232 0.299-0.535 0.448-1.157 0.448-1.867zM116.225 21.501c-0.022 0-0.049 0.001-0.075 0.001-0.938 0-1.819-0.242-2.584-0.668l0.027 0.014c-0.78-0.448-1.407-1.081-1.835-1.842l-0.013-0.024c-0.448-0.809-0.672-1.743-0.672-2.8 0-1.045 0.229-1.973 0.691-2.781 0.447-0.792 1.088-1.427 1.861-1.854l0.025-0.012c0.75-0.412 1.644-0.654 2.594-0.654 0.027 0 0.053 0 0.080 0.001l-0.004-0c0.983 0 1.872 0.217 2.669 0.653 0.797 0.44 1.438 1.075 1.873 1.843l0.012 0.024c0.46 0.809 0.691 1.736 0.691 2.781s-0.237 1.973-0.709 2.781c-0.467 0.799-1.126 1.44-1.915 1.872l-0.026 0.013c-0.759 0.412-1.661 0.654-2.62 0.654-0.024 0-0.048-0-0.072-0l0.004 0zM116.225 19.653c0.547 0 1.057-0.131 1.531-0.392 0.485-0.261 0.877-0.653 1.176-1.176s0.448-1.157 0.448-1.904c0-0.747-0.144-1.375-0.429-1.885-0.264-0.497-0.652-0.898-1.125-1.169l-0.014-0.007c-0.436-0.247-0.957-0.392-1.513-0.392-0.006 0-0.013 0-0.019 0h0.001c-0.548 0-1.059 0.131-1.531 0.392-0.461 0.261-0.828 0.653-1.101 1.176-0.275 0.511-0.411 1.139-0.411 1.885 0 1.107 0.28 1.967 0.84 2.576 0.572 0.597 1.288 0.896 2.147 0.896zM122.772 16.144c0-1.033 0.211-1.947 0.633-2.744 0.813-1.511 2.382-2.52 4.188-2.52 0.011 0 0.022 0 0.032 0h-0.002c0.809 0 1.512 0.161 2.109 0.485 0.611 0.311 1.096 0.703 1.456 1.176v-1.493h2.147v10.285h-2.147v-1.531c-0.36 0.485-0.852 0.889-1.475 1.213-0.621 0.324-1.331 0.485-2.128 0.485-0.883 0-1.692-0.224-2.427-0.672-0.742-0.474-1.337-1.117-1.742-1.877l-0.013-0.027c-0.423-0.821-0.635-1.748-0.635-2.781zM131.189 16.181c0-0.709-0.149-1.325-0.448-1.848-0.285-0.523-0.665-0.92-1.139-1.195-0.434-0.258-0.957-0.411-1.516-0.411-0.005 0-0.010 0-0.015 0h0.001c-0.547 0-1.057 0.137-1.531 0.411-0.472 0.261-0.859 0.653-1.157 1.176-0.285 0.511-0.429 1.12-0.429 1.829s0.144 1.332 0.429 1.867c0.299 0.535 0.685 0.947 1.157 1.232 0.485 0.273 0.996 0.411 1.531 0.411 0.548 0 1.059-0.137 1.531-0.411 0.473-0.273 0.853-0.672 1.139-1.195 0.299-0.535 0.448-1.157 0.448-1.867zM138.073 12.541c0.311-0.523 0.721-0.927 1.232-1.213 0.523-0.299 1.139-0.448 1.848-0.448v2.203h-0.541c-0.835 0-1.469 0.212-1.904 0.635-0.424 0.423-0.635 1.157-0.635 2.203v5.413h-2.128v-10.285h2.128v1.493zM142.213 16.144c0-1.033 0.211-1.947 0.635-2.744 0.81-1.511 2.379-2.52 4.183-2.52 0.019 0 0.038 0 0.058 0l-0.003-0c0.672 0 1.331 0.149 1.979 0.448 0.659 0.287 1.181 0.672 1.568 1.157v-4.965h2.147v13.813h-2.147v-1.549c-0.349 0.497-0.835 0.908-1.456 1.232-0.611 0.324-1.313 0.485-2.109 0.485-0.012 0-0.027 0-0.042 0-0.895 0-1.731-0.25-2.443-0.684l0.021 0.012c-0.742-0.474-1.338-1.117-1.742-1.877l-0.013-0.027c-0.424-0.821-0.635-1.748-0.635-2.781zM150.632 16.181c0-0.709-0.149-1.325-0.448-1.848-0.287-0.523-0.667-0.92-1.139-1.195-0.434-0.258-0.958-0.411-1.517-0.411-0.005 0-0.010 0-0.014 0h0.001c-0.005-0-0.010-0-0.016-0-0.558 0-1.081 0.153-1.529 0.418l0.014-0.008c-0.473 0.261-0.859 0.653-1.157 1.176-0.287 0.511-0.429 1.12-0.429 1.829s0.143 1.332 0.429 1.867c0.299 0.535 0.684 0.947 1.157 1.232 0.439 0.257 0.967 0.409 1.531 0.409s1.091-0.152 1.545-0.417l-0.015 0.008c0.472-0.273 0.852-0.672 1.139-1.195 0.299-0.535 0.448-1.157 0.448-1.867z"></path>
</symbol>
<symbol id="icon-help" viewBox="0 0 308 32">
<path fill="#9197b3" style="fill: var(--color1, #9197b3)" d="M10.667 29.76c-0.373 0-0.76-0.093-1.107-0.28-0.76-0.4-1.227-1.2-1.227-2.053v-1.893c-4.027-0.413-6.667-3.373-6.667-7.613v-8c0-4.587 3.080-7.667 7.667-7.667h13.333c4.587 0 7.667 3.080 7.667 7.667v8c0 4.587-3.080 7.667-7.667 7.667h-5.027l-5.68 3.787c-0.387 0.253-0.84 0.387-1.293 0.387zM9.333 4.24c-3.44 0-5.667 2.227-5.667 5.667v8c0 3.44 2.227 5.667 5.667 5.667 0.547 0 1 0.453 1 1v2.84c0 0.173 0.107 0.253 0.173 0.293s0.2 0.080 0.347-0.013l5.933-3.947c0.16-0.107 0.36-0.173 0.56-0.173h5.333c3.44 0 5.667-2.227 5.667-5.667v-8c0-3.44-2.227-5.667-5.667-5.667h-13.347z"></path>
<path fill="#9197b3" style="fill: var(--color1, #9197b3)" d="M16 16.147c-0.547 0-1-0.453-1-1v-0.28c0-1.547 1.133-2.307 1.56-2.6 0.493-0.333 0.653-0.56 0.653-0.907 0-0.667-0.547-1.213-1.213-1.213s-1.213 0.547-1.213 1.213c0 0.547-0.453 1-1 1s-1-0.453-1-1c0-1.773 1.44-3.213 3.213-3.213s3.213 1.44 3.213 3.213c0 1.52-1.12 2.28-1.533 2.56-0.52 0.347-0.68 0.573-0.68 0.947v0.28c0 0.56-0.453 1-1 1zM16 19.467c-0 0-0.001 0-0.001 0-0.552 0-0.999-0.447-0.999-0.999s0.446-0.998 0.997-0.999h0c0 0 0.001 0 0.001 0 0.552 0 0.999 0.447 0.999 0.999s-0.446 0.998-0.997 0.999h-0zM62.427 9.693v12.973h-2.128v-5.675h-6.104v5.675h-2.128v-12.973h2.128v5.563h6.104v-5.563h2.128zM74.468 17.272c0 0.387-0.025 0.733-0.075 1.045h-7.859c0.063 0.821 0.367 1.48 0.915 1.979 0.547 0.497 1.22 0.747 2.016 0.747 1.145 0 1.953-0.48 2.427-1.437h2.296c-0.319 0.961-0.912 1.759-1.685 2.324l-0.013 0.009c-0.809 0.597-1.817 0.896-3.024 0.896-0.983 0-1.867-0.217-2.651-0.653-0.771-0.452-1.392-1.084-1.817-1.842l-0.013-0.025c-0.436-0.809-0.653-1.743-0.653-2.8s0.212-1.985 0.635-2.781c0.42-0.789 1.037-1.425 1.788-1.855l0.022-0.012c0.784-0.436 1.68-0.653 2.688-0.653 0.971 0 1.836 0.212 2.595 0.635 0.76 0.423 1.351 1.020 1.773 1.792 0.423 0.76 0.635 1.636 0.635 2.632zM72.247 16.6c-0.013-0.784-0.293-1.413-0.84-1.885-0.547-0.473-1.227-0.709-2.035-0.709-0.733 0-1.363 0.236-1.885 0.709-0.523 0.46-0.833 1.089-0.933 1.885h5.693zM78.504 8.853v13.813h-2.128v-13.813h2.128zM83.239 13.893c0.36-0.473 0.853-0.871 1.475-1.195 0.592-0.306 1.293-0.486 2.035-0.486 0.026 0 0.052 0 0.078 0.001l-0.004-0c0.896 0 1.711 0.224 2.445 0.672 0.747 0.436 1.332 1.052 1.755 1.848 0.424 0.796 0.635 1.711 0.635 2.744s-0.211 1.96-0.635 2.781c-0.41 0.792-1.007 1.437-1.734 1.892l-0.020 0.012c-0.682 0.422-1.509 0.672-2.395 0.672-0.018 0-0.035-0-0.053-0l0.003 0c-0.784 0-1.48-0.156-2.091-0.467-0.588-0.306-1.084-0.706-1.487-1.187l-0.006-0.007v6.384h-2.128v-15.176h2.128v1.512zM89.492 17.477c0-0.709-0.149-1.32-0.448-1.829-0.267-0.501-0.662-0.902-1.143-1.169l-0.015-0.007c-0.434-0.258-0.957-0.411-1.516-0.411-0.005 0-0.010 0-0.015 0h0.001c-0.535 0-1.045 0.137-1.531 0.411-0.487 0.292-0.88 0.696-1.149 1.179l-0.008 0.016c-0.287 0.523-0.429 1.139-0.429 1.848s0.143 1.332 0.429 1.867c0.299 0.523 0.685 0.92 1.157 1.195 0.485 0.273 0.996 0.411 1.531 0.411 0.547 0 1.059-0.137 1.531-0.411 0.485-0.287 0.871-0.697 1.157-1.232 0.299-0.535 0.448-1.157 0.448-1.867z"></path>
<path fill="none" stroke="#9197b3" style="stroke: var(--color1, #9197b3)" stroke-linejoin="round" stroke-linecap="round" stroke-miterlimit="4" stroke-width="2.6667" d="M294.667 21.333l5.333-5.333-5.333-5.333"></path>
</symbol>
<symbol id="icon-income" viewBox="0 0 308 32">
<path fill="none" stroke="#9197b3" style="stroke: var(--color1, #9197b3)" stroke-linejoin="round" stroke-linecap="round" stroke-miterlimit="4" stroke-width="2" d="M14.336 22.48v2.707c0 2.293-2.133 4.147-4.76 4.147s-4.773-1.853-4.773-4.147v-2.707c0 2.293 2.133 3.92 4.773 3.92 2.627 0 4.76-1.64 4.76-3.92z"></path>
<path fill="none" stroke="#9197b3" style="stroke: var(--color1, #9197b3)" stroke-linejoin="round" stroke-linecap="round" stroke-miterlimit="4" stroke-width="2" d="M14.333 18.813c0 0.667-0.187 1.28-0.507 1.813-0.787 1.293-2.4 2.107-4.267 2.107s-3.48-0.827-4.267-2.107c-0.32-0.533-0.507-1.147-0.507-1.813 0-1.147 0.533-2.173 1.387-2.92 0.867-0.76 2.053-1.213 3.373-1.213s2.507 0.467 3.373 1.213c0.88 0.733 1.413 1.773 1.413 2.92z"></path>
<path fill="none" stroke="#9197b3" style="stroke: var(--color1, #9197b3)" stroke-linejoin="round" stroke-linecap="round" stroke-miterlimit="4" stroke-width="2" d="M14.336 18.813v3.667c0 2.293-2.133 3.92-4.76 3.92s-4.773-1.64-4.773-3.92v-3.667c0-2.293 2.133-4.147 4.773-4.147 1.32 0 2.507 0.467 3.373 1.213 0.853 0.747 1.387 1.787 1.387 2.933zM29.333 14.627v2.747c0 0.733-0.587 1.333-1.333 1.36h-2.613c-1.44 0-2.76-1.053-2.88-2.493-0.080-0.84 0.24-1.627 0.8-2.173 0.493-0.507 1.173-0.8 1.92-0.8h2.773c0.747 0.027 1.333 0.627 1.333 1.36z"></path>
<path fill="none" stroke="#9197b3" style="stroke: var(--color1, #9197b3)" stroke-linejoin="round" stroke-linecap="round" stroke-miterlimit="4" stroke-width="2" d="M2.667 14v-2.667c0-3.627 2.187-6.16 5.587-6.587 0.347-0.053 0.707-0.080 1.080-0.080h12c0.347 0 0.68 0.013 1 0.067 3.44 0.4 5.667 2.947 5.667 6.6v1.933h-2.773c-0.747 0-1.427 0.293-1.92 0.8-0.56 0.547-0.88 1.333-0.8 2.173 0.12 1.44 1.44 2.493 2.88 2.493h2.613v1.933c0 4-2.667 6.667-6.667 6.667h-3.333"></path>
<path fill="#9197b3" style="fill: var(--color1, #9197b3)" d="M54.195 9.693v12.973h-2.128v-12.973h2.128zM61.991 12.213c0.809 0 1.531 0.168 2.165 0.504 0.648 0.336 1.152 0.833 1.512 1.493 0.361 0.66 0.541 1.456 0.541 2.389v6.067h-2.109v-5.749c0-0.92-0.229-1.624-0.691-2.109-0.46-0.497-1.088-0.747-1.885-0.747-0.796 0-1.431 0.249-1.904 0.747-0.46 0.485-0.691 1.188-0.691 2.109v5.749h-2.128v-10.285h2.128v1.176c0.349-0.423 0.791-0.753 1.325-0.989 0.506-0.224 1.096-0.355 1.717-0.355 0.007 0 0.013 0 0.020 0h-0.001zM68.028 17.515c0-1.057 0.212-1.985 0.635-2.781 0.417-0.786 1.028-1.421 1.77-1.855l0.022-0.012c0.76-0.436 1.631-0.653 2.613-0.653 1.244 0 2.271 0.299 3.080 0.896 0.821 0.585 1.376 1.425 1.661 2.52h-2.296c-0.173-0.493-0.485-0.902-0.889-1.19l-0.007-0.005c-0.411-0.287-0.927-0.429-1.549-0.429-0.871 0-1.568 0.311-2.091 0.933-0.511 0.609-0.765 1.468-0.765 2.576 0 1.107 0.255 1.973 0.765 2.595 0.523 0.623 1.22 0.933 2.091 0.933 1.232 0 2.047-0.541 2.445-1.624h2.296c-0.299 1.045-0.859 1.88-1.68 2.501-0.821 0.609-1.841 0.915-3.061 0.915-0.983 0-1.853-0.217-2.613-0.653-0.759-0.453-1.368-1.085-1.779-1.841l-0.013-0.025c-0.423-0.809-0.635-1.743-0.635-2.8zM84.205 22.835c-0.022 0-0.049 0.001-0.075 0.001-0.938 0-1.819-0.242-2.584-0.668l0.027 0.014c-0.78-0.448-1.407-1.081-1.835-1.842l-0.013-0.024c-0.448-0.809-0.672-1.743-0.672-2.8 0-1.045 0.229-1.973 0.691-2.781 0.447-0.792 1.088-1.427 1.861-1.854l0.025-0.012c0.75-0.412 1.644-0.654 2.594-0.654 0.027 0 0.053 0 0.080 0.001l-0.004-0c0.983 0 1.872 0.217 2.669 0.653 0.797 0.44 1.438 1.075 1.873 1.843l0.012 0.024c0.46 0.809 0.691 1.736 0.691 2.781s-0.237 1.973-0.709 2.781c-0.467 0.799-1.126 1.44-1.915 1.872l-0.026 0.013c-0.759 0.412-1.661 0.654-2.62 0.654-0.024 0-0.048-0-0.072-0l0.004 0zM84.205 20.987c0.547 0 1.057-0.131 1.531-0.392 0.485-0.261 0.877-0.653 1.176-1.176s0.448-1.157 0.448-1.904c0-0.747-0.144-1.375-0.429-1.885-0.264-0.497-0.652-0.898-1.125-1.169l-0.014-0.007c-0.436-0.247-0.957-0.392-1.512-0.392-0.006 0-0.013 0-0.019 0h0.001c-0.547 0-1.059 0.131-1.531 0.392-0.461 0.261-0.827 0.653-1.101 1.176-0.275 0.511-0.411 1.139-0.411 1.885 0 1.107 0.28 1.967 0.84 2.576 0.573 0.597 1.288 0.896 2.147 0.896zM103.912 12.213c0.808 0 1.531 0.168 2.165 0.504 0.647 0.336 1.151 0.833 1.511 1.493 0.373 0.66 0.56 1.456 0.56 2.389v6.067h-2.108v-5.749c0-0.92-0.229-1.624-0.689-2.109-0.461-0.497-1.089-0.747-1.887-0.747-0.796 0-1.431 0.249-1.903 0.747-0.461 0.485-0.692 1.188-0.692 2.109v5.749h-2.109v-5.749c0-0.92-0.231-1.624-0.691-2.109-0.461-0.497-1.089-0.747-1.887-0.747-0.796 0-1.431 0.249-1.903 0.747-0.461 0.485-0.691 1.188-0.691 2.109v5.749h-2.128v-10.285h2.128v1.176c0.347-0.423 0.789-0.753 1.325-0.989 0.497-0.224 1.078-0.355 1.689-0.355 0.009 0 0.019 0 0.028 0h-0.001c0.823 0 1.556 0.173 2.204 0.523 0.647 0.348 1.144 0.853 1.493 1.512 0.326-0.635 0.826-1.141 1.438-1.466l0.018-0.009c0.606-0.352 1.333-0.56 2.109-0.56 0.007 0 0.014 0 0.020 0h-0.001zM120.096 17.272c0 0.387-0.024 0.733-0.075 1.045h-7.859c0.063 0.821 0.368 1.48 0.915 1.979 0.548 0.497 1.22 0.747 2.016 0.747 1.145 0 1.955-0.48 2.427-1.437h2.296c-0.319 0.961-0.912 1.759-1.685 2.324l-0.013 0.009c-0.808 0.597-1.816 0.896-3.024 0.896-0.983 0-1.867-0.217-2.651-0.653-0.771-0.452-1.392-1.084-1.817-1.842l-0.013-0.025c-0.435-0.809-0.653-1.743-0.653-2.8s0.212-1.985 0.635-2.781c0.42-0.789 1.038-1.425 1.788-1.855l0.022-0.012c0.784-0.436 1.68-0.653 2.688-0.653 0.971 0 1.836 0.212 2.595 0.635 0.754 0.422 1.359 1.032 1.762 1.769l0.012 0.023c0.424 0.76 0.635 1.636 0.635 2.632zM117.875 16.6c-0.012-0.784-0.292-1.413-0.84-1.885-0.547-0.473-1.225-0.709-2.035-0.709-0.733 0-1.363 0.236-1.885 0.709-0.523 0.46-0.833 1.089-0.933 1.885h5.693z"></path>
<path fill="none" stroke="#9197b3" style="stroke: var(--color1, #9197b3)" stroke-linejoin="round" stroke-linecap="round" stroke-miterlimit="4" stroke-width="2.6667" d="M294.667 21.333l5.333-5.333-5.333-5.333"></path>
</symbol>
<symbol id="icon-product" viewBox="0 0 308 32">
<path fill="#9197b3" style="fill: var(--color1, #9197b3)" d="M20 30.333h-8c-7.24 0-10.333-3.093-10.333-10.333v-8c0-7.24 3.093-10.333 10.333-10.333h8c7.24 0 10.333 3.093 10.333 10.333v8c0 7.24-3.093 10.333-10.333 10.333zM12 3.667c-6.147 0-8.333 2.187-8.333 8.333v8c0 6.147 2.187 8.333 8.333 8.333h8c6.147 0 8.333-2.187 8.333-8.333v-8c0-6.147-2.187-8.333-8.333-8.333h-8z"></path>
<path fill="#9197b3" style="fill: var(--color1, #9197b3)" d="M16 17.44c-0.173 0-0.347-0.040-0.507-0.133l-7.067-4.080c-0.299-0.174-0.497-0.493-0.497-0.858 0-0.185 0.051-0.358 0.139-0.507l-0.002 0.005c0.28-0.48 0.893-0.64 1.36-0.36l6.56 3.8 6.52-3.773c0.48-0.28 1.093-0.107 1.36 0.36s0.107 1.093-0.36 1.36l-7.013 4.053c-0.147 0.080-0.32 0.133-0.493 0.133z"></path>
<path fill="#9197b3" style="fill: var(--color1, #9197b3)" d="M16 24.693c-0.547 0-1-0.453-1-1v-7.253c0-0.547 0.453-1 1-1s1 0.453 1 1v7.253c0 0.547-0.453 1-1 1z"></path>
<path fill="#9197b3" style="fill: var(--color1, #9197b3)" d="M16 25c-0.773 0-1.533-0.173-2.147-0.507l-4.267-2.373c-1.28-0.707-2.267-2.4-2.267-3.867v-4.52c0-1.453 1-3.147 2.267-3.867l4.267-2.373c1.227-0.68 3.067-0.68 4.293 0l4.267 2.373c1.28 0.707 2.267 2.4 2.267 3.867v4.52c0 1.453-1 3.147-2.267 3.867l-4.267 2.373c-0.613 0.347-1.373 0.507-2.147 0.507zM16 9c-0.44 0-0.867 0.080-1.173 0.253l-4.267 2.373c-0.653 0.36-1.24 1.373-1.24 2.107v4.52c0 0.747 0.587 1.747 1.24 2.107l4.267 2.373c0.613 0.347 1.733 0.347 2.347 0l4.267-2.373c0.653-0.36 1.24-1.373 1.24-2.107v-4.52c0-0.747-0.587-1.747-1.24-2.107l-4.267-2.373c-0.307-0.173-0.733-0.253-1.173-0.253zM61.139 13.557c0 0.66-0.156 1.281-0.467 1.867s-0.809 1.064-1.493 1.437c-0.684 0.36-1.561 0.541-2.632 0.541h-2.352v5.264h-2.128v-12.973h4.48c0.996 0 1.836 0.173 2.52 0.523 0.697 0.336 1.213 0.796 1.549 1.381 0.348 0.585 0.523 1.239 0.523 1.96zM56.547 15.667c0.809 0 1.413-0.18 1.811-0.541 0.399-0.373 0.597-0.896 0.597-1.568 0-1.419-0.803-2.128-2.408-2.128h-2.352v4.237h2.352zM65.109 13.875c0.311-0.523 0.721-0.927 1.232-1.213 0.523-0.299 1.139-0.448 1.848-0.448v2.203h-0.541c-0.833 0-1.468 0.212-1.904 0.635-0.423 0.423-0.635 1.157-0.635 2.203v5.413h-2.128v-10.285h2.128v1.493zM74.42 22.835c-0.022 0-0.049 0.001-0.075 0.001-0.938 0-1.819-0.242-2.584-0.668l0.027 0.014c-0.78-0.448-1.407-1.081-1.835-1.842l-0.013-0.024c-0.448-0.809-0.672-1.743-0.672-2.8 0-1.045 0.231-1.973 0.691-2.781 0.447-0.792 1.088-1.427 1.861-1.854l0.025-0.012c0.75-0.412 1.644-0.654 2.594-0.654 0.027 0 0.053 0 0.080 0.001l-0.004-0c0.984 0 1.873 0.217 2.669 0.653 0.797 0.44 1.438 1.075 1.873 1.843l0.012 0.024c0.461 0.809 0.691 1.736 0.691 2.781s-0.236 1.973-0.709 2.781c-0.467 0.799-1.126 1.44-1.915 1.872l-0.026 0.013c-0.759 0.412-1.661 0.654-2.62 0.654-0.024 0-0.048-0-0.072-0l0.004 0zM74.42 20.987c0.547 0 1.059-0.131 1.531-0.392 0.485-0.261 0.877-0.653 1.176-1.176s0.448-1.157 0.448-1.904c0-0.747-0.143-1.375-0.429-1.885-0.264-0.497-0.652-0.898-1.125-1.169l-0.014-0.007c-0.436-0.247-0.957-0.392-1.512-0.392-0.006 0-0.013 0-0.019 0h0.001c-0.547 0-1.057 0.131-1.531 0.392-0.46 0.261-0.827 0.653-1.101 1.176-0.273 0.511-0.411 1.139-0.411 1.885 0 1.107 0.28 1.967 0.84 2.576 0.573 0.597 1.288 0.896 2.147 0.896zM80.967 17.477c0-1.033 0.212-1.947 0.635-2.744 0.813-1.511 2.382-2.52 4.188-2.52 0.017 0 0.035 0 0.052 0l-0.003-0c0.672 0 1.332 0.149 1.979 0.448 0.66 0.287 1.183 0.672 1.568 1.157v-4.965h2.147v13.813h-2.147v-1.549c-0.348 0.497-0.833 0.908-1.456 1.232-0.609 0.324-1.313 0.485-2.109 0.485-0.012 0-0.027 0-0.042 0-0.895 0-1.731-0.25-2.443-0.684l0.021 0.012c-0.742-0.474-1.337-1.117-1.742-1.877l-0.013-0.027c-0.423-0.821-0.635-1.748-0.635-2.781zM89.385 17.515c0-0.709-0.149-1.325-0.448-1.848-0.287-0.523-0.667-0.92-1.139-1.195-0.434-0.258-0.957-0.411-1.516-0.411-0.005 0-0.010 0-0.015 0h0.001c-0.547 0-1.057 0.137-1.531 0.411-0.473 0.261-0.859 0.653-1.157 1.176-0.287 0.511-0.429 1.12-0.429 1.829s0.143 1.332 0.429 1.867c0.299 0.535 0.684 0.947 1.157 1.232 0.485 0.273 0.996 0.411 1.531 0.411 0.547 0 1.057-0.137 1.531-0.411s0.853-0.672 1.139-1.195c0.299-0.535 0.448-1.157 0.448-1.867zM103.455 12.381v10.285h-2.128v-1.213c-0.336 0.423-0.777 0.76-1.325 1.008-0.535 0.236-1.107 0.355-1.717 0.355-0.022 0-0.047 0.001-0.073 0.001-0.77 0-1.497-0.186-2.137-0.517l0.026 0.012c-0.642-0.347-1.158-0.856-1.502-1.474l-0.010-0.019c-0.36-0.66-0.541-1.456-0.541-2.389v-6.048h2.109v5.731c0 0.92 0.231 1.631 0.691 2.128 0.461 0.485 1.089 0.728 1.885 0.728 0.797 0 1.425-0.243 1.885-0.728 0.473-0.497 0.709-1.207 0.709-2.128v-5.731h2.128zM105.367 17.515c0-1.057 0.212-1.985 0.635-2.781 0.417-0.786 1.028-1.421 1.77-1.855l0.022-0.012c0.76-0.436 1.631-0.653 2.613-0.653 1.244 0 2.271 0.299 3.080 0.896 0.821 0.585 1.375 1.425 1.661 2.52h-2.296c-0.173-0.493-0.485-0.902-0.889-1.19l-0.007-0.005c-0.411-0.287-0.927-0.429-1.549-0.429-0.871 0-1.568 0.311-2.091 0.933-0.511 0.609-0.765 1.468-0.765 2.576 0 1.107 0.255 1.973 0.765 2.595 0.523 0.623 1.22 0.933 2.091 0.933 1.232 0 2.047-0.541 2.445-1.624h2.296c-0.299 1.045-0.859 1.88-1.68 2.501-0.821 0.609-1.841 0.915-3.061 0.915-0.983 0-1.853-0.217-2.613-0.653-0.759-0.453-1.368-1.085-1.779-1.841l-0.013-0.025c-0.423-0.809-0.635-1.743-0.635-2.8zM119.565 14.117v5.693c0 0.387 0.087 0.667 0.261 0.84 0.187 0.161 0.497 0.243 0.933 0.243h1.307v1.773h-1.68c-0.96 0-1.693-0.224-2.203-0.672-0.511-0.448-0.765-1.176-0.765-2.184v-5.693h-1.213v-1.736h1.213v-2.557h2.147v2.557h2.501v1.736h-2.501z"></path>
<path fill="none" stroke="#9197b3" style="stroke: var(--color1, #9197b3)" stroke-linejoin="round" stroke-linecap="round" stroke-miterlimit="4" stroke-width="2.6667" d="M294.667 21.333l5.333-5.333-5.333-5.333"></path>
</symbol>
<symbol id="icon-promote" viewBox="0 0 308 32">
<path fill="#9197b3" style="fill: var(--color1, #9197b3)" d="M16 30.333c-0.84 0-1.627-0.32-2.213-0.92l-2.027-2.027c-0.16-0.16-0.587-0.333-0.8-0.333h-2.88c-1.733 0-3.133-1.4-3.133-3.133v-2.88c0-0.213-0.173-0.64-0.333-0.8l-2.027-2.027c-0.587-0.587-0.92-1.373-0.92-2.213s0.32-1.627 0.92-2.213l2.027-2.027c0.16-0.16 0.333-0.587 0.333-0.8v-2.88c0-1.733 1.4-3.133 3.133-3.133h2.88c0.213 0 0.64-0.173 0.8-0.333l2.027-2.027c1.173-1.173 3.253-1.173 4.427 0l2.027 2.027c0.16 0.16 0.587 0.333 0.8 0.333h2.88c1.733 0 3.133 1.4 3.133 3.133v2.88c0 0.213 0.173 0.64 0.333 0.8l2.027 2.027c0.587 0.587 0.92 1.373 0.92 2.213s-0.32 1.627-0.92 2.213l-2.027 2.027c-0.16 0.16-0.333 0.587-0.333 0.8v2.88c0 1.733-1.4 3.133-3.133 3.133h-2.88c-0.213 0-0.64 0.173-0.8 0.333l-2.027 2.027c-0.587 0.6-1.373 0.92-2.213 0.92zM6.027 18.827c0.533 0.533 0.92 1.467 0.92 2.213v2.88c0 0.627 0.507 1.133 1.133 1.133h2.88c0.747 0 1.68 0.387 2.213 0.92l2.027 2.027c0.427 0.427 1.173 0.427 1.6 0l2.027-2.027c0.533-0.533 1.467-0.92 2.213-0.92h2.88c0.627 0 1.133-0.507 1.133-1.133v-2.88c0-0.747 0.387-1.68 0.92-2.213l2.027-2.027c0.206-0.203 0.333-0.485 0.333-0.797 0-0.001 0-0.002 0-0.003v0c0-0.307-0.12-0.587-0.333-0.8l-2.027-2.027c-0.533-0.533-0.92-1.467-0.92-2.213v-2.88c0-0.626-0.507-1.133-1.133-1.133v0h-2.88c-0.747 0-1.68-0.387-2.213-0.92l-2.027-2.027c-0.208-0.198-0.49-0.32-0.8-0.32s-0.592 0.122-0.8 0.32l0-0-2.027 2.027c-0.533 0.533-1.467 0.92-2.213 0.92h-2.88c-0.626 0-1.133 0.507-1.133 1.133v0 2.88c0 0.747-0.387 1.68-0.92 2.213l-2.027 2.027c-0.213 0.213-0.333 0.493-0.333 0.8s0.12 0.587 0.333 0.8l2.027 2.027z"></path>
<path fill="#9197b3" style="fill: var(--color1, #9197b3)" d="M20 21.333c-0.747 0-1.347-0.6-1.347-1.333s0.6-1.333 1.333-1.333 1.333 0.6 1.333 1.333-0.587 1.333-1.32 1.333zM12.013 13.333c-0.747 0-1.347-0.6-1.347-1.333s0.6-1.333 1.333-1.333 1.333 0.6 1.333 1.333-0.587 1.333-1.32 1.333zM12 21c-0.253 0-0.507-0.093-0.707-0.293-0.179-0.181-0.29-0.431-0.29-0.707s0.111-0.525 0.29-0.707l8-8c0.387-0.387 1.027-0.387 1.413 0s0.387 1.027 0 1.413l-8 8c-0.2 0.2-0.453 0.293-0.707 0.293zM61.139 13.557c0 0.66-0.156 1.281-0.467 1.867s-0.809 1.064-1.493 1.437c-0.684 0.36-1.561 0.541-2.632 0.541h-2.352v5.264h-2.128v-12.973h4.48c0.996 0 1.836 0.173 2.52 0.523 0.697 0.336 1.213 0.796 1.549 1.381 0.348 0.585 0.523 1.239 0.523 1.96zM56.547 15.667c0.809 0 1.413-0.18 1.811-0.541 0.399-0.373 0.597-0.896 0.597-1.568 0-1.419-0.803-2.128-2.408-2.128h-2.352v4.237h2.352zM65.109 13.875c0.311-0.523 0.721-0.927 1.232-1.213 0.523-0.299 1.139-0.448 1.848-0.448v2.203h-0.541c-0.833 0-1.468 0.212-1.904 0.635-0.423 0.423-0.635 1.157-0.635 2.203v5.413h-2.128v-10.285h2.128v1.493zM74.42 22.835c-0.022 0-0.049 0.001-0.075 0.001-0.938 0-1.819-0.242-2.584-0.668l0.027 0.014c-0.78-0.448-1.407-1.081-1.835-1.842l-0.013-0.024c-0.448-0.809-0.672-1.743-0.672-2.8 0-1.045 0.231-1.973 0.691-2.781 0.447-0.792 1.088-1.427 1.861-1.854l0.025-0.012c0.75-0.412 1.644-0.654 2.594-0.654 0.027 0 0.053 0 0.080 0.001l-0.004-0c0.984 0 1.873 0.217 2.669 0.653 0.797 0.44 1.438 1.075 1.873 1.843l0.012 0.024c0.461 0.809 0.691 1.736 0.691 2.781s-0.236 1.973-0.709 2.781c-0.467 0.799-1.126 1.44-1.915 1.872l-0.026 0.013c-0.759 0.412-1.661 0.654-2.62 0.654-0.024 0-0.048-0-0.072-0l0.004 0zM74.42 20.987c0.547 0 1.059-0.131 1.531-0.392 0.485-0.261 0.877-0.653 1.176-1.176s0.448-1.157 0.448-1.904c0-0.747-0.143-1.375-0.429-1.885-0.264-0.497-0.652-0.898-1.125-1.169l-0.014-0.007c-0.436-0.247-0.957-0.392-1.512-0.392-0.006 0-0.013 0-0.019 0h0.001c-0.547 0-1.057 0.131-1.531 0.392-0.46 0.261-0.827 0.653-1.101 1.176-0.273 0.511-0.411 1.139-0.411 1.885 0 1.107 0.28 1.967 0.84 2.576 0.573 0.597 1.288 0.896 2.147 0.896zM94.127 12.213c0.809 0 1.531 0.168 2.165 0.504 0.647 0.336 1.151 0.833 1.512 1.493 0.373 0.66 0.56 1.456 0.56 2.389v6.067h-2.109v-5.749c0-0.92-0.231-1.624-0.691-2.109-0.46-0.497-1.089-0.747-1.885-0.747s-1.431 0.249-1.904 0.747c-0.46 0.485-0.691 1.188-0.691 2.109v5.749h-2.109v-5.749c0-0.92-0.231-1.624-0.691-2.109-0.46-0.497-1.089-0.747-1.885-0.747s-1.431 0.249-1.904 0.747c-0.46 0.485-0.691 1.188-0.691 2.109v5.749h-2.128v-10.285h2.128v1.176c0.348-0.423 0.791-0.753 1.325-0.989 0.497-0.224 1.078-0.355 1.689-0.355 0.010 0 0.020 0 0.029 0h-0.001c0.821 0 1.556 0.173 2.203 0.523 0.647 0.348 1.145 0.853 1.493 1.512 0.326-0.635 0.826-1.141 1.438-1.466l0.018-0.009c0.606-0.352 1.333-0.56 2.109-0.56 0.007 0 0.014 0 0.020 0h-0.001zM105.347 22.835c-0.022 0-0.049 0.001-0.075 0.001-0.938 0-1.819-0.242-2.584-0.668l0.027 0.014c-0.78-0.448-1.407-1.081-1.835-1.842l-0.013-0.024c-0.448-0.809-0.672-1.743-0.672-2.8 0-1.045 0.229-1.973 0.691-2.781 0.447-0.792 1.088-1.427 1.861-1.854l0.025-0.012c0.75-0.412 1.644-0.654 2.594-0.654 0.027 0 0.053 0 0.080 0.001l-0.004-0c0.983 0 1.872 0.217 2.669 0.653 0.797 0.44 1.438 1.075 1.873 1.843l0.012 0.024c0.46 0.809 0.691 1.736 0.691 2.781s-0.236 1.973-0.709 2.781c-0.467 0.799-1.126 1.44-1.915 1.872l-0.026 0.013c-0.759 0.412-1.661 0.654-2.62 0.654-0.024 0-0.048-0-0.072-0l0.004 0zM105.347 20.987c0.547 0 1.057-0.131 1.531-0.392 0.485-0.261 0.877-0.653 1.176-1.176s0.448-1.157 0.448-1.904c0-0.747-0.144-1.375-0.429-1.885-0.264-0.497-0.652-0.898-1.125-1.169l-0.014-0.007c-0.436-0.247-0.957-0.392-1.512-0.392-0.006 0-0.013 0-0.019 0h0.001c-0.547 0-1.059 0.131-1.531 0.392-0.461 0.261-0.827 0.653-1.101 1.176-0.275 0.511-0.411 1.139-0.411 1.885 0 1.107 0.28 1.967 0.84 2.576 0.573 0.597 1.288 0.896 2.147 0.896zM115.085 14.117v5.693c0 0.387 0.087 0.667 0.261 0.84 0.187 0.161 0.497 0.243 0.933 0.243h1.307v1.773h-1.68c-0.96 0-1.693-0.224-2.203-0.672-0.511-0.448-0.765-1.176-0.765-2.184v-5.693h-1.213v-1.736h1.213v-2.557h2.147v2.557h2.501v1.736h-2.501zM128.788 17.272c0 0.387-0.027 0.733-0.075 1.045h-7.86c0.061 0.821 0.367 1.48 0.913 1.979 0.548 0.497 1.22 0.747 2.017 0.747 1.144 0 1.953-0.48 2.427-1.437h2.295c-0.319 0.96-0.911 1.758-1.684 2.324l-0.013 0.009c-0.809 0.597-1.817 0.896-3.025 0.896-0.983 0-1.867-0.217-2.649-0.653-0.772-0.452-1.393-1.084-1.818-1.842l-0.013-0.025c-0.435-0.809-0.653-1.743-0.653-2.8s0.213-1.985 0.636-2.781c0.42-0.789 1.038-1.425 1.788-1.855l0.022-0.012c0.784-0.436 1.68-0.653 2.688-0.653 0.971 0 1.835 0.212 2.593 0.635 0.754 0.422 1.359 1.032 1.762 1.769l0.012 0.023c0.424 0.76 0.636 1.636 0.636 2.632zM126.567 16.6c-0.013-0.784-0.293-1.413-0.84-1.885-0.548-0.473-1.227-0.709-2.035-0.709-0.735 0-1.364 0.236-1.887 0.709-0.521 0.46-0.833 1.089-0.933 1.885h5.693z"></path>
<path fill="none" stroke="#9197b3" style="stroke: var(--color1, #9197b3)" stroke-linejoin="round" stroke-linecap="round" stroke-miterlimit="4" stroke-width="2.6667" d="M294.667 21.333l5.333-5.333-5.333-5.333"></path>
</symbol>
</defs>
</svg>
